<?xml version="1.0" encoding="utf-8" standalone="no"?>
<!DOCTYPE svg PUBLIC "-//W3C//DTD SVG 1.1//EN"
  "http://www.w3.org/Graphics/SVG/1.1/DTD/svg11.dtd">
<!-- Created with matplotlib (https://matplotlib.org/) -->
<svg height="360pt" version="1.1" viewBox="0 0 648 360" width="648pt" xmlns="http://www.w3.org/2000/svg" xmlns:xlink="http://www.w3.org/1999/xlink">
 <metadata>
  <rdf:RDF xmlns:cc="http://creativecommons.org/ns#" xmlns:dc="http://purl.org/dc/elements/1.1/" xmlns:rdf="http://www.w3.org/1999/02/22-rdf-syntax-ns#">
   <cc:Work>
    <dc:type rdf:resource="http://purl.org/dc/dcmitype/StillImage"/>
    <dc:date>2022-05-24T10:04:36.582845</dc:date>
    <dc:format>image/svg+xml</dc:format>
    <dc:creator>
     <cc:Agent>
      <dc:title>Matplotlib v3.3.3, https://matplotlib.org/</dc:title>
     </cc:Agent>
    </dc:creator>
   </cc:Work>
  </rdf:RDF>
 </metadata>
 <defs>
  <style type="text/css">*{stroke-linecap:butt;stroke-linejoin:round;}</style>
 </defs>
 <g id="figure_1">
  <g id="patch_1">
   <path d="M 0 360 
L 648 360 
L 648 0 
L 0 0 
z
" style="fill:none;"/>
  </g>
  <g id="axes_1">
   <g id="line2d_1">
    <path clip-path="url(#pa5789ed891)" d="M 103.827273 271.72507 
L 108.438843 271.649106 
L 113.050413 271.569207 
L 117.661983 271.485169 
L 122.273554 271.396777 
L 126.885124 271.303807 
L 131.496694 271.20602 
L 136.108264 271.103168 
L 140.719835 270.994988 
L 145.331405 270.881205 
L 149.942975 270.761526 
L 154.554545 270.635649 
L 159.166116 270.50325 
L 163.777686 270.363993 
L 168.389256 270.217522 
L 173.000826 270.063464 
L 177.612397 269.901425 
L 182.223967 269.730992 
L 186.835537 269.551731 
L 191.447107 269.363183 
L 196.058678 269.164868 
L 200.670248 268.95628 
L 205.281818 268.736887 
L 209.893388 268.506128 
L 214.504959 268.263416 
L 219.116529 268.008131 
L 223.728099 267.739621 
L 228.339669 267.457202 
L 232.95124 267.160153 
L 237.56281 266.847716 
L 242.17438 266.519095 
L 246.78595 266.17345 
L 251.397521 265.8099 
L 256.009091 265.427517 
L 260.620661 265.025326 
L 265.232231 264.602301 
L 269.843802 264.157362 
L 274.455372 263.689374 
L 279.066942 263.197143 
L 283.678512 262.679414 
L 288.290083 262.134865 
L 292.901653 261.562108 
L 297.513223 260.95968 
L 302.124793 260.326045 
L 306.736364 259.659587 
L 311.347934 258.958605 
L 315.959504 258.22131 
L 320.571074 257.445822 
L 325.182645 256.630162 
L 329.794215 255.772248 
L 334.405785 254.869894 
L 339.017355 253.920795 
L 343.628926 252.92253 
L 348.240496 251.872554 
L 352.852066 250.768186 
L 357.463636 249.60661 
L 362.075207 248.384862 
L 366.686777 247.099824 
L 371.298347 245.748219 
L 375.909917 244.326597 
L 380.521488 242.831333 
L 385.133058 241.25861 
L 389.744628 239.604417 
L 394.356198 237.864533 
L 398.967769 236.03452 
L 403.579339 234.109708 
L 408.190909 232.085186 
L 412.802479 229.95579 
L 417.41405 227.716086 
L 422.02562 225.360361 
L 426.63719 222.882604 
L 431.24876 220.276494 
L 435.860331 217.535382 
L 440.471901 214.652274 
L 445.083471 211.619815 
L 449.695041 208.430268 
L 454.306612 205.075495 
L 458.918182 201.546938 
L 463.529752 197.835594 
L 468.141322 193.931994 
L 472.752893 189.82618 
L 477.364463 185.507675 
L 481.976033 180.965462 
L 486.587603 176.187953 
L 491.199174 171.162959 
L 495.810744 165.877659 
L 500.422314 160.318568 
L 505.033884 154.471505 
L 509.645455 148.321551 
L 514.257025 141.853016 
L 518.868595 135.049397 
L 523.480165 127.893336 
L 528.091736 120.366575 
L 532.703306 112.449912 
L 537.314876 104.123148 
L 541.926446 95.36504 
L 546.538017 86.153243 
L 551.149587 76.464254 
L 555.761157 66.273355 
L 560.372727 55.554545 
" style="fill:none;stroke:#1f77b4;stroke-linecap:square;stroke-width:1.5;"/>
   </g>
   <g id="line2d_2">
    <path clip-path="url(#pa5789ed891)" d="M 103.827273 302.645455 
L 108.438843 301.157881 
L 113.050413 299.670307 
L 117.661983 298.182734 
L 122.273554 296.69516 
L 126.885124 295.207586 
L 131.496694 293.720013 
L 136.108264 292.232439 
L 140.719835 290.744865 
L 145.331405 289.257292 
L 149.942975 287.769718 
L 154.554545 286.282144 
L 159.166116 284.794571 
L 163.777686 283.306997 
L 168.389256 281.819423 
L 173.000826 280.33185 
L 177.612397 278.844276 
L 182.223967 277.356702 
L 186.835537 275.869129 
L 191.447107 274.381555 
L 196.058678 272.893981 
L 200.670248 271.406408 
L 205.281818 269.918834 
L 209.893388 268.43126 
L 214.504959 266.943687 
L 219.116529 265.456113 
L 223.728099 263.96854 
L 228.339669 262.480966 
L 232.95124 260.993392 
L 237.56281 259.505819 
L 242.17438 258.018245 
L 246.78595 256.530671 
L 251.397521 255.043098 
L 256.009091 253.555524 
L 260.620661 252.06795 
L 265.232231 250.580377 
L 269.843802 249.092803 
L 274.455372 247.605229 
L 279.066942 246.117656 
L 283.678512 244.630082 
L 288.290083 243.142508 
L 292.901653 241.654935 
L 297.513223 240.167361 
L 302.124793 238.679787 
L 306.736364 237.192214 
L 311.347934 235.70464 
L 315.959504 234.217066 
L 320.571074 232.729493 
L 325.182645 231.241919 
L 329.794215 229.754345 
L 334.405785 228.266772 
L 339.017355 226.779198 
L 343.628926 225.291624 
L 348.240496 223.804051 
L 352.852066 222.316477 
L 357.463636 220.828904 
L 362.075207 219.34133 
L 366.686777 217.853756 
L 371.298347 216.366183 
L 375.909917 214.878609 
L 380.521488 213.391035 
L 385.133058 211.903462 
L 389.744628 210.415888 
L 394.356198 208.928314 
L 398.967769 207.440741 
L 403.579339 205.953167 
L 408.190909 204.465593 
L 412.802479 202.97802 
L 417.41405 201.490446 
L 422.02562 200.002872 
L 426.63719 198.515299 
L 431.24876 197.027725 
L 435.860331 195.540151 
L 440.471901 194.052578 
L 445.083471 192.565004 
L 449.695041 191.07743 
L 454.306612 189.589857 
L 458.918182 188.102283 
L 463.529752 186.614709 
L 468.141322 185.127136 
L 472.752893 183.639562 
L 477.364463 182.151988 
L 481.976033 180.664415 
L 486.587603 179.176841 
L 491.199174 177.689268 
L 495.810744 176.201694 
L 500.422314 174.71412 
L 505.033884 173.226547 
L 509.645455 171.738973 
L 514.257025 170.251399 
L 518.868595 168.763826 
L 523.480165 167.276252 
L 528.091736 165.788678 
L 532.703306 164.301105 
L 537.314876 162.813531 
L 541.926446 161.325957 
L 546.538017 159.838384 
L 551.149587 158.35081 
L 555.761157 156.863236 
L 560.372727 155.375663 
" style="fill:none;stroke:#ff7f0e;stroke-linecap:square;stroke-width:1.5;"/>
   </g>
   <g id="line2d_3">
    <path clip-path="url(#pa5789ed891)" d="M 81 273.191496 
L 583.2 273.191496 
" style="fill:none;stroke:#000000;stroke-linecap:square;stroke-width:1.5;"/>
   </g>
   <g id="line2d_4">
    <path clip-path="url(#pa5789ed891)" d="M 377.754545 315 
L 377.754545 43.2 
" style="fill:none;stroke:#000000;stroke-linecap:square;stroke-width:1.5;"/>
   </g>
   <g id="text_1">
    <!-- $y=x+2$ -->
    <g transform="translate(263.818884 241.422301)rotate(-19.5)scale(0.2 -0.2)">
     <defs>
      <path d="M 26.296875 -10.9375 
C 23.59375 -14.671875 19.703125 -18 14.796875 -18 
C 13.59375 -18 8.796875 -18 7.296875 -13.890625 
C 7.59375 -13.984375 8.09375 -13.984375 8.296875 -13.984375 
C 11.296875 -13.984375 13.296875 -11.390625 13.296875 -9.09375 
C 13.296875 -6.796875 11.40625 -6 9.90625 -6 
C 8.296875 -6 4.796875 -7.15625 4.796875 -11.859375 
C 4.796875 -16.734375 9.09375 -20.09375 14.796875 -20.09375 
C 24.796875 -20.09375 34.90625 -10.9375 37.703125 0.09375 
L 47.5 38.828125 
C 47.59375 39.328125 47.796875 39.9375 47.796875 40.53125 
C 47.796875 42.015625 46.59375 43.015625 45.09375 43.015625 
C 44.203125 43.015625 42.09375 42.609375 41.296875 39.609375 
L 33.90625 10.28125 
C 33.40625 8.484375 33.40625 8.28125 32.59375 7.1875 
C 30.59375 4.390625 27.296875 1 22.5 1 
C 16.90625 1 16.40625 6.484375 16.40625 9.1875 
C 16.40625 14.875 19.09375 22.546875 21.796875 29.734375 
C 22.90625 32.625 23.5 34.03125 23.5 36.015625 
C 23.5 40.21875 20.5 44 15.59375 44 
C 6.40625 44 2.703125 29.53125 2.703125 28.734375 
C 2.703125 28.34375 3.09375 27.84375 3.796875 27.84375 
C 4.703125 27.84375 4.796875 28.234375 5.203125 29.640625 
C 7.59375 38.015625 11.40625 42.015625 15.296875 42.015625 
C 16.203125 42.015625 17.90625 42.015625 17.90625 38.71875 
C 17.90625 36.125 16.796875 33.234375 15.296875 29.4375 
C 10.40625 16.359375 10.40625 13.078125 10.40625 10.671875 
C 10.40625 1.203125 17.203125 -1 22.203125 -1 
C 25.09375 -1 28.703125 -0.09375 32.203125 3.59375 
L 32.296875 3.5 
C 30.796875 -2.296875 29.796875 -6.125 26.296875 -10.9375 
z
" id="CMMI12-121"/>
      <path d="M 64.296875 31.515625 
C 65.796875 31.515625 67.296875 31.515625 67.296875 33.203125 
C 67.296875 35 65.59375 35 63.90625 35 
L 8 35 
C 6.296875 35 4.59375 35 4.59375 33.203125 
C 4.59375 31.515625 6.09375 31.515625 7.59375 31.515625 
z
M 63.90625 14 
C 65.59375 14 67.296875 14 67.296875 15.796875 
C 67.296875 17.484375 65.796875 17.484375 64.296875 17.484375 
L 7.59375 17.484375 
C 6.09375 17.484375 4.59375 17.484375 4.59375 15.796875 
C 4.59375 14 6.296875 14 8 14 
z
" id="CMR17-61"/>
      <path d="M 47.40625 40.71875 
C 44.203125 40.109375 43 37.71875 43 35.828125 
C 43 33.421875 44.90625 32.625 46.296875 32.625 
C 49.296875 32.625 51.40625 35.21875 51.40625 37.921875 
C 51.40625 42.109375 46.59375 44 42.40625 44 
C 36.296875 44 32.90625 38.015625 32 36.125 
C 29.703125 44 23.5 44 21.703125 44 
C 11.5 44 6.09375 30.9375 6.09375 28.734375 
C 6.09375 28.34375 6.5 27.84375 7.203125 27.84375 
C 8 27.84375 8.203125 28.4375 8.40625 28.84375 
C 11.796875 39.921875 18.5 42.015625 21.40625 42.015625 
C 25.90625 42.015625 26.796875 37.8125 26.796875 35.421875 
C 26.796875 33.234375 26.203125 30.9375 25 26.140625 
L 21.59375 12.46875 
C 20.09375 6.484375 17.203125 1 11.90625 1 
C 11.40625 1 8.90625 1 6.796875 2.296875 
C 10.40625 3 11.203125 5.984375 11.203125 7.1875 
C 11.203125 9.1875 9.703125 10.375 7.796875 10.375 
C 5.40625 10.375 2.796875 8.28125 2.796875 5.09375 
C 2.796875 0.890625 7.5 -1 11.796875 -1 
C 16.59375 -1 20 2.796875 22.09375 6.890625 
C 23.703125 1 28.703125 -1 32.40625 -1 
C 42.59375 -1 48 12.078125 48 14.265625 
C 48 14.765625 47.59375 15.171875 47 15.171875 
C 46.09375 15.171875 46 14.671875 45.703125 13.875 
C 43 5.09375 37.203125 1 32.703125 1 
C 29.203125 1 27.296875 3.59375 27.296875 7.6875 
C 27.296875 9.875 27.703125 11.46875 29.296875 18.0625 
L 32.796875 31.625 
C 34.296875 37.625 37.703125 42.015625 42.296875 42.015625 
C 42.5 42.015625 45.296875 42.015625 47.40625 40.71875 
z
" id="CMMI12-120"/>
      <path d="M 37.703125 23 
L 64.203125 23 
C 65.59375 23 67.296875 23 67.296875 24.6875 
C 67.296875 26.484375 65.703125 26.484375 64.203125 26.484375 
L 37.703125 26.484375 
L 37.703125 52.90625 
C 37.703125 54.296875 37.703125 56 36 56 
C 34.203125 56 34.203125 54.40625 34.203125 52.90625 
L 34.203125 26.484375 
L 7.703125 26.484375 
C 6.296875 26.484375 4.59375 26.484375 4.59375 24.796875 
C 4.59375 23 6.203125 23 7.703125 23 
L 34.203125 23 
L 34.203125 -3.40625 
C 34.203125 -4.796875 34.203125 -6.5 35.90625 -6.5 
C 37.703125 -6.5 37.703125 -4.90625 37.703125 -3.40625 
z
" id="CMR17-43"/>
      <path d="M 41.703125 15.453125 
L 39.90625 15.453125 
C 38.90625 8.375 38.09375 7.171875 37.703125 6.5625 
C 37.203125 5.765625 30 5.765625 28.59375 5.765625 
L 9.40625 5.765625 
C 13 9.671875 20 16.75 28.5 24.953125 
C 34.59375 30.734375 41.703125 37.53125 41.703125 47.421875 
C 41.703125 59.21875 32.296875 66 21.796875 66 
C 10.796875 66 4.09375 56.3125 4.09375 47.34375 
C 4.09375 43.4375 7 42.9375 8.203125 42.9375 
C 9.203125 42.9375 12.203125 43.546875 12.203125 47.03125 
C 12.203125 50.109375 9.59375 51 8.203125 51 
C 7.59375 51 7 50.90625 6.59375 50.703125 
C 8.5 59.21875 14.296875 63.40625 20.40625 63.40625 
C 29.09375 63.40625 34.796875 56.515625 34.796875 47.421875 
C 34.796875 38.734375 29.703125 31.25 24 24.75 
L 4.09375 2.28125 
L 4.09375 0 
L 39.296875 0 
z
" id="CMR17-50"/>
     </defs>
     <use transform="scale(0.996264)" xlink:href="#CMMI12-121"/>
     <use transform="translate(78.812789 0)scale(0.996264)" xlink:href="#CMR17-61"/>
     <use transform="translate(178.201587 0)scale(0.996264)" xlink:href="#CMMI12-120"/>
     <use transform="translate(255.774853 0)scale(0.996264)" xlink:href="#CMR17-43"/>
     <use transform="translate(349.628848 0)scale(0.996264)" xlink:href="#CMR17-50"/>
    </g>
   </g>
   <g id="text_2">
    <!-- $y=e^x$ -->
    <g transform="translate(427.047768 245.163117)rotate(-25)scale(0.2 -0.2)">
     <defs>
      <path d="M 17.90625 23.109375 
C 20.59375 23.109375 27.40625 23.109375 32.203125 24.921875 
C 39.796875 27.859375 40.5 33.71875 40.5 35.53125 
C 40.5 39.96875 36.703125 44 30.09375 44 
C 19.59375 44 4.5 34.53125 4.5 16.765625 
C 4.5 6.28125 10.5 -1 19.59375 -1 
C 33.203125 -1 41.796875 9.515625 41.796875 10.8125 
C 41.796875 11.40625 41.203125 11.90625 40.796875 11.90625 
C 40.5 11.90625 40.40625 11.8125 39.5 10.921875 
C 33.09375 2.484375 23.59375 1 19.796875 1 
C 14.09375 1 11.09375 5.46875 11.09375 12.84375 
C 11.09375 14.234375 11.09375 16.734375 12.59375 23.109375 
z
M 13.09375 25 
C 17.40625 40.5 26.90625 42.015625 30.09375 42.015625 
C 34.5 42.015625 37.5 39.40625 37.5 35.578125 
C 37.5 25 21.5 25 17.296875 25 
z
" id="CMMI12-101"/>
     </defs>
     <use transform="scale(0.996264)" xlink:href="#CMMI12-121"/>
     <use transform="translate(78.812789 0)scale(0.996264)" xlink:href="#CMR17-61"/>
     <use transform="translate(178.201587 0)scale(0.996264)" xlink:href="#CMMI12-101"/>
     <use transform="translate(223.413588 36.153639)scale(0.697382)" xlink:href="#CMMI12-120"/>
    </g>
   </g>
  </g>
 </g>
 <defs>
  <clipPath id="pa5789ed891">
   <rect height="271.8" width="502.2" x="81" y="43.2"/>
  </clipPath>
 </defs>
</svg>
